<svg xmlns="http://www.w3.org/2000/svg" viewBox="0 0 24 24" fill="none">
  <path
    d="M12 2.5C15 4.5 18.2 5.7 20 6.1V10.3C20 15.5 16 19.8 12 21.3C8 19.8 4 15.5 4 10.3V6.1C5.8 5.7 9 4.5 12 2.5Z"
    stroke="#10202A"
    stroke-width="1.8"
    stroke-linejoin="round"
  />
  <path
    d="M7.3 12C8.4 10.4 10 9.5 12 9.5C14 9.5 15.6 10.4 16.7 12C15.6 13.6 14 14.5 12 14.5C10 14.5 8.4 13.6 7.3 12Z"
    stroke="#10202A"
    stroke-width="1.8"
    stroke-linejoin="round"
  />
  <circle cx="12" cy="12" r="1.7" fill="#2F80ED" />
  <circle cx="12" cy="12" r="3" stroke="#2F80ED" stroke-width="1.4" />
</svg>
